<svg width="48" height="48" viewBox="0 0 48 48" fill="none" xmlns="http://www.w3.org/2000/svg">
<path fill-rule="evenodd" clip-rule="evenodd" d="M21.3902 5.14282C16.6268 5.14282 12.0584 7.05859 8.69019 10.4687C5.32195 13.8788 3.42969 18.5038 3.42969 23.3264C3.42969 28.149 5.32195 32.7741 8.69019 36.1842C12.0584 39.5943 16.6268 41.51 21.3902 41.51H44.5725L37.5354 33.4766C39.3538 30.7402 40.4029 27.5546 40.5703 24.2609C40.7377 20.9672 40.0172 17.6894 38.4858 14.7785C36.9545 11.8676 34.67 9.43314 31.8769 7.7358C29.0839 6.03846 25.8874 5.14215 22.6299 5.14282H21.3902Z" fill="#FF7110"/>
<path d="M32.2857 21.9839L27.9789 26.282L28.9972 32.3531C29.0328 32.5673 29.0091 32.7872 28.9288 32.9885C28.8484 33.1898 28.7146 33.3647 28.5421 33.4937C28.3706 33.6214 28.167 33.6976 27.9547 33.7135C27.7424 33.7293 27.5299 33.6842 27.3418 33.5833L22.0117 30.7171L16.6841 33.5808C16.4964 33.6824 16.2842 33.7284 16.0719 33.7134C15.8595 33.6984 15.6557 33.6231 15.4837 33.4962C15.3115 33.367 15.178 33.1921 15.0981 32.9907C15.0182 32.7894 14.995 32.5695 15.0312 32.3556L16.0495 26.2845L11.7401 21.9839C11.5873 21.8313 11.4793 21.6388 11.4281 21.4277C11.3769 21.2167 11.3844 20.9955 11.4499 20.7886C11.5852 20.3652 11.9418 20.0589 12.3698 19.9967L18.3271 19.1101L20.9909 13.5868C21.0837 13.3926 21.2287 13.2288 21.4093 13.1142C21.5898 12.9995 21.7986 12.9387 22.0117 12.9387C22.2248 12.9387 22.4336 12.9995 22.6141 13.1142C22.7947 13.2288 22.9397 13.3926 23.0325 13.5868L25.6987 19.1077L31.6561 19.9967C31.8663 20.0318 32.0628 20.125 32.2241 20.266C32.3854 20.4069 32.5052 20.5902 32.5703 20.7956C32.6354 21.001 32.6433 21.2206 32.5931 21.4302C32.5428 21.6399 32.4365 21.8314 32.2857 21.9839Z" fill="white"/>
</svg>
